<?xml version="1.0" standalone="no"?>
<!DOCTYPE svg PUBLIC "-//W3C//DTD SVG 20010904//EN"
 "http://www.w3.org/TR/2001/REC-SVG-20010904/DTD/svg10.dtd">
<svg version="1.0" xmlns="http://www.w3.org/2000/svg"
 width="1024.000000pt" height="512.000000pt" viewBox="0 0 1024.000000 512.000000"
 preserveAspectRatio="xMidYMid meet">

<g transform="translate(0.000000,512.000000) scale(0.100000,-0.100000)"
fill="#000000" stroke="none">
<path d="M4931 5064 c-62 -68 -134 -210 -161 -318 -11 -44 -29 -147 -40 -228
-11 -82 -27 -162 -36 -179 -13 -26 -19 -30 -42 -24 -32 8 -69 40 -88 77 -20
38 -17 109 6 175 11 31 18 59 15 61 -2 2 -28 -20 -57 -49 -87 -88 -112 -209
-89 -439 18 -179 24 -295 17 -323 -8 -33 -36 -42 -78 -24 -67 29 -120 113
-136 218 l-8 54 -17 -70 c-31 -133 -39 -219 -34 -345 8 -208 64 -341 196 -462
63 -59 190 -128 261 -143 33 -7 31 -5 -25 33 -176 118 -226 310 -144 554 24
74 107 253 114 247 2 -3 -2 -27 -10 -54 -20 -64 -19 -112 3 -155 38 -77 143
-107 192 -55 34 37 39 123 11 204 -36 103 -23 202 35 278 14 19 56 56 93 83
71 51 115 105 127 154 6 25 8 26 17 11 21 -38 10 -137 -24 -220 -42 -102 -46
-190 -11 -246 34 -56 85 -59 113 -7 17 32 14 139 -5 176 -23 45 -4 40 48 -11
68 -69 77 -108 74 -336 l-3 -192 33 -30 c53 -47 119 -35 152 30 17 33 14 114
-5 150 -21 41 -2 39 30 -3 80 -105 69 -225 -35 -350 -47 -56 -50 -73 -14 -82
33 -8 71 19 101 72 18 32 23 35 23 17 0 -37 -40 -131 -76 -178 -19 -25 -31
-45 -28 -45 3 0 43 19 87 42 115 60 251 194 300 296 58 121 70 259 34 383 -14
47 -19 43 -31 -32 -14 -81 -113 -168 -176 -154 -15 3 -38 17 -51 31 -20 22
-24 36 -23 87 0 51 8 81 46 167 59 136 68 165 68 212 0 54 -19 95 -77 161 -96
109 -141 231 -131 353 4 51 3 55 -9 38 -51 -68 -58 -95 -58 -229 0 -108 -3
-136 -18 -158 -9 -15 -22 -27 -27 -27 -19 0 -47 42 -80 117 -55 128 -105 206
-201 313 -50 55 -97 116 -105 135 -27 65 -15 147 41 278 5 13 2 17 -13 17 -12
0 -41 -24 -71 -56z"/>
<path d="M3184 4961 c-17 -10 -113 -97 -213 -192 -101 -96 -212 -200 -247
-233 -74 -67 -94 -100 -94 -153 1 -77 25 -106 348 -418 309 -297 384 -359 450
-371 33 -6 37 -3 109 75 93 101 237 222 373 313 104 70 105 71 101 107 -4 47
-26 112 -54 159 -20 34 -459 553 -551 651 -72 76 -159 101 -222 62z m177 -203
c12 -7 96 -110 188 -228 290 -373 301 -388 301 -420 0 -33 -25 -52 -58 -43
-12 3 -134 137 -277 304 -235 277 -255 303 -255 337 0 21 5 43 12 50 16 16 63
15 89 0z m-217 -194 c9 -3 133 -136 276 -295 209 -232 260 -295 260 -317 0
-33 -16 -52 -44 -52 -29 0 -572 544 -587 588 -20 60 31 101 95 76z m-166 -236
c168 -152 523 -505 529 -526 9 -36 -9 -57 -45 -56 -25 2 -83 47 -299 234 -287
248 -318 279 -328 317 -10 39 18 73 60 73 28 0 46 -10 83 -42z"/>
<path d="M6519 4573 c-275 -243 -400 -359 -412 -385 -16 -33 -18 -52 -12 -138
l8 -100 61 -44 c34 -24 96 -75 136 -114 l75 -69 79 -6 c135 -12 117 -28 476
429 172 220 320 407 328 417 25 28 7 30 -45 4 -34 -18 -113 -92 -278 -263
-282 -291 -307 -306 -424 -248 -81 41 -121 117 -106 203 7 45 34 77 284 347
130 141 191 214 209 252 13 29 22 56 19 58 -3 3 -182 -151 -398 -343z"/>
<path d="M4924 4110 c-86 -55 -115 -164 -75 -279 56 -162 -13 -311 -144 -311
-47 0 -115 29 -149 64 l-25 24 -17 -75 c-43 -194 15 -330 181 -424 77 -43 87
-96 25 -132 -29 -17 -32 -17 -119 12 -166 56 -284 140 -367 262 -96 142 -130
277 -121 484 4 72 13 161 22 199 8 38 13 72 10 74 -5 6 -123 -60 -200 -111
-105 -71 -242 -186 -321 -270 -72 -77 -228 -276 -222 -282 3 -3 326 71 522
119 32 8 54 11 50 6 -5 -4 -144 -46 -308 -94 -165 -47 -300 -87 -301 -88 -13
-19 -66 -120 -74 -140 -8 -20 -7 -26 2 -23 35 12 482 115 490 112 4 -1 -106
-35 -245 -76 -139 -40 -259 -77 -267 -81 -13 -7 -64 -120 -57 -127 1 -2 72 12
155 32 84 19 158 35 164 34 7 0 -67 -23 -163 -52 l-175 -52 -22 -82 c-15 -57
-18 -83 -10 -83 7 0 214 47 461 105 247 58 452 103 454 100 3 -3 2 -5 -1 -5
-13 0 -913 -262 -928 -271 -10 -5 -20 -28 -23 -54 -7 -45 -21 -56 -44 -33 -19
19 -15 -12 4 -34 14 -14 14 -20 4 -33 -11 -14 -7 -19 13 -16 4 0 7 -21 7 -48
0 -43 2 -49 19 -44 24 6 35 -22 15 -42 -9 -8 -20 -15 -25 -15 -5 0 -9 -29 -9
-65 l0 -65 25 10 c19 7 25 6 25 -5 0 -17 -37 -38 -55 -31 -23 8 -38 -49 -32
-117 6 -59 110 -436 141 -511 22 -53 51 -62 133 -42 71 18 117 42 148 76 10
11 29 20 42 20 14 0 53 11 88 26 61 24 65 24 90 8 31 -20 46 -17 220 37 167
52 174 56 205 109 20 34 37 49 71 62 62 24 95 22 133 -7 41 -31 55 -31 169 0
264 72 263 72 252 186 -6 59 -5 70 6 63 8 -4 49 -32 92 -61 48 -32 89 -53 106
-53 33 0 118 24 158 45 15 8 42 15 59 15 43 0 128 27 155 49 19 15 25 32 29
81 l5 61 62 -40 c81 -52 112 -57 196 -31 60 19 70 25 83 55 8 19 14 46 14 60
0 30 0 30 56 4 141 -64 350 -16 472 109 41 42 58 53 75 48 12 -3 51 -13 86
-22 61 -17 70 -17 143 -2 110 23 209 71 262 127 60 66 81 130 81 256 0 92 -2
104 -30 154 -39 71 -138 161 -177 161 -16 0 -52 12 -80 26 -34 17 -54 22 -56
15 -7 -20 -32 -12 -44 14 -17 38 2 72 47 81 25 4 35 11 31 20 -10 26 -87 134
-95 134 -5 0 -27 -7 -50 -15 -39 -14 -71 -12 -71 5 0 4 21 15 48 25 26 10 49
19 51 21 8 7 -95 124 -110 124 -9 0 -51 -12 -94 -26 -101 -34 -108 -25 -8 11
43 15 82 31 86 35 11 10 -171 180 -267 249 -89 64 -224 146 -231 140 -2 -2 9
-34 25 -70 73 -171 70 -369 -7 -523 -40 -80 -94 -146 -119 -146 -17 0 -21 -5
-17 -19 11 -41 -291 -230 -341 -215 -58 18 -72 65 -32 111 l24 28 -29 17 c-61
37 -59 93 7 174 l37 45 -40 -7 c-29 -4 -52 -1 -85 14 -88 39 -113 111 -102
297 l7 120 -22 -19 c-13 -12 -41 -21 -75 -24 -48 -4 -56 -1 -89 27 -67 59 -91
187 -55 289 9 23 15 42 14 42 0 0 -15 -9 -32 -20z m1391 -740 c-10 -11 -30
-20 -44 -20 l-25 0 22 16 c12 8 27 12 32 9 6 -3 10 -1 10 4 0 6 5 11 12 11 6
0 3 -9 -7 -20z m-95 -29 c0 -10 -249 -95 -256 -88 -5 5 223 94 244 96 6 1 12
-3 12 -8z m155 -151 c-4 -6 -10 -8 -14 -6 -14 9 -73 -51 -69 -71 4 -26 -20
-70 -42 -76 -10 -2 -20 -18 -24 -38 -3 -18 -19 -51 -33 -73 l-28 -39 -15 36
c-23 52 -48 76 -85 83 -20 3 -35 13 -38 24 -6 22 -47 16 -47 -6 0 -8 -10 -14
-24 -14 -17 0 -26 7 -30 26 -4 15 -3 30 1 35 11 11 403 128 431 128 13 1 20
-3 17 -9z m95 -55 c7 -9 8 -15 2 -15 -5 0 -12 7 -16 15 -3 8 -4 15 -2 15 2 0
9 -7 16 -15z m35 -25 c4 -6 -6 -10 -21 -10 -22 0 -25 -3 -16 -12 7 -7 12 -17
12 -22 0 -6 -7 -3 -14 7 -12 15 -18 16 -35 7 -12 -6 -21 -7 -21 -2 0 5 17 16
38 25 46 19 49 19 57 7z m204 -28 c62 -31 78 -44 99 -82 13 -25 28 -46 33 -48
5 -2 9 -18 9 -35 l-1 -32 -13 36 c-7 21 -23 50 -36 65 -22 29 -22 29 -16 4 3
-14 -2 -9 -12 12 -9 21 -22 38 -28 38 -7 0 -14 6 -17 13 -10 25 -98 59 -136
53 -20 -3 -43 -1 -51 4 -11 7 1 10 40 10 44 0 70 -8 129 -38z m-167 -4 c-7 -7
-12 -8 -12 -2 0 14 12 26 19 19 2 -3 -1 -11 -7 -17z m-160 -16 c-16 -12 -21
-23 -16 -36 6 -15 3 -17 -14 -12 -28 9 -65 -46 -58 -86 3 -15 1 -30 -4 -33 -4
-3 -16 -28 -25 -56 -16 -48 -16 -55 0 -115 9 -35 30 -80 46 -100 34 -43 37
-55 8 -28 -37 33 -71 112 -84 194 0 3 -6 15 -13 26 -9 18 -9 24 3 34 8 7 15
17 15 22 0 6 -6 6 -14 -1 -10 -9 -15 -8 -20 4 -3 8 -1 15 5 15 6 0 7 5 4 10
-9 14 42 81 87 115 21 16 38 35 38 43 0 7 3 11 8 9 4 -3 16 -1 27 4 31 12 32
10 7 -9z m-522 -21 c0 -20 -13 -41 -21 -35 -15 9 -10 44 6 44 8 0 15 -4 15 -9z
m-52 -28 c-2 -10 -13 -22 -26 -28 -12 -5 -22 -15 -22 -22 0 -6 -3 -13 -8 -15
-4 -1 -25 -24 -46 -51 -31 -38 -43 -46 -60 -41 -17 5 -19 4 -8 -7 17 -19 15
-36 -8 -59 -27 -27 -35 -25 -60 14 -25 42 -46 50 -110 41 -88 -12 -140 -63
-140 -137 0 -20 -4 -39 -8 -42 -4 -2 -39 15 -76 40 -83 53 -111 55 -204 17
-97 -39 -163 -33 -174 16 -2 10 117 50 452 152 250 75 465 138 478 138 17 1
23 -4 20 -16z m77 -43 c3 -5 1 -10 -4 -10 -6 0 -11 5 -11 10 0 6 2 10 4 10 3
0 8 -4 11 -10z m722 -27 c12 12 83 -87 83 -115 0 -7 -9 6 -21 29 -27 55 -77
86 -128 81 -22 -2 -37 0 -35 4 3 5 16 8 30 8 18 0 23 4 17 13 -4 6 5 4 21 -6
15 -10 30 -16 33 -14z m-664 -4 c-4 -4 -30 -10 -58 -13 l-50 -6 34 19 c32 17
92 17 74 0z m157 -4 c15 -8 30 -20 32 -27 5 -15 -18 -78 -34 -93 -7 -7 -7 -4
-1 10 19 40 9 78 -27 98 -27 15 -35 16 -41 5 -6 -9 -9 -9 -9 -1 0 6 -15 14
-32 16 -20 2 -10 4 25 5 35 1 70 -4 87 -13z m-259 -55 c6 0 8 -4 5 -9 -3 -5
-22 -9 -41 -8 -39 1 -75 -26 -75 -57 0 -16 -3 -18 -9 -7 -10 16 -15 9 -35 -50
-21 -59 -20 -133 1 -167 17 -26 17 -27 -2 -12 -17 13 -18 13 -13 0 15 -43 16
-62 1 -30 -10 22 -18 68 -20 125 -3 84 -1 94 23 130 14 22 54 61 88 87 60 46
61 47 64 23 2 -14 8 -25 13 -25z m688 -56 c25 -31 27 -76 6 -94 -18 -15 -17
-15 -39 27 -23 46 -21 93 5 93 4 0 17 -12 28 -26z m-988 -26 c23 -28 49 -72
27 -48 -47 52 -62 59 -104 49 -71 -18 -86 -90 -31 -147 28 -31 29 -33 6 -18
l-27 17 16 -57 16 -57 13 29 13 29 -7 -35 c-4 -19 -6 -46 -6 -59 2 -39 -13
-10 -36 74 -12 44 -26 89 -31 100 -4 11 -11 33 -15 48 -3 16 -10 25 -16 21 -6
-3 -3 5 6 20 19 29 27 34 19 11 -4 -8 -2 -15 4 -15 5 0 12 8 15 19 3 11 19 22
43 29 60 15 74 14 95 -10z m1147 -30 c-4 -24 -10 -49 -11 -56 -4 -16 -24 -35
-39 -38 -7 -1 -22 -5 -33 -9 -11 -4 -5 3 13 15 37 25 62 67 62 105 0 14 4 25
9 25 5 0 4 -19 -1 -42z m-743 14 c-6 -5 -22 -13 -37 -20 -23 -9 -26 -9 -21 3
3 8 8 13 12 11 3 -2 15 0 26 5 27 10 31 11 20 1z m115 -17 c33 -19 21 -19 -21
0 -19 8 -27 14 -19 14 8 0 26 -6 40 -14z m134 -34 c3 -4 -6 -6 -19 -3 -14 2
-25 6 -25 8 0 8 39 4 44 -5z m-69 -11 c-11 -5 -27 -9 -35 -9 -9 0 -8 4 5 9 11
5 27 9 35 9 9 0 8 -4 -5 -9z m-1357 -27 c2 -12 -4 -38 -13 -57 -13 -28 -15
-49 -10 -96 l7 -60 -26 10 c-15 5 -53 28 -85 51 -68 48 -105 53 -190 24 -88
-29 -90 -53 -33 -287 11 -43 15 -78 11 -78 -13 0 -103 125 -136 187 -15 28
-31 50 -34 47 -4 -2 -9 6 -11 18 -2 16 -14 26 -38 34 -30 10 -61 47 -49 58 10
10 566 175 584 173 12 -1 21 -11 23 -24z m409 16 c6 -6 9 -18 6 -25 -3 -8 -1
-14 5 -14 5 0 13 -8 16 -17 5 -13 0 -11 -19 7 -14 13 -24 29 -21 36 3 9 -4 10
-31 2 -19 -5 -37 -7 -40 -4 -12 12 -48 -26 -59 -64 -10 -32 -9 -42 2 -51 8 -6
14 -16 14 -22 0 -6 -8 -1 -17 13 -9 13 -18 44 -19 68 -1 24 2 39 6 32 6 -9 9
-8 11 5 6 31 122 58 146 34z m873 -9 c-8 -5 -24 -9 -35 -9 -16 1 -16 2 5 9 35
11 48 11 30 0z m-829 -27 c13 -16 12 -17 -3 -4 -10 7 -18 15 -18 17 0 8 8 3
21 -13z m751 6 c-23 -9 -24 -16 -5 -66 3 -7 3 -13 0 -13 -3 0 -11 16 -17 36
-13 38 -4 54 30 53 8 0 5 -4 -8 -10z m-2403 -13 c-6 -5 -355 -106 -369 -106
-6 0 -10 6 -8 13 3 6 81 30 179 54 164 39 208 48 198 39z m1369 -9 c13 -16 64
-199 57 -205 -2 -3 -6 1 -8 9 -2 8 -9 30 -16 49 -7 19 -18 55 -24 80 -11 42
-14 45 -47 46 -52 1 -92 -17 -86 -38 2 -10 0 -16 -5 -12 -16 9 -9 -39 11 -85
11 -24 18 -46 16 -48 -2 -3 2 -27 10 -55 21 -67 16 -83 -16 -57 -23 19 -23 19
-2 9 21 -10 22 -9 16 17 -6 25 -13 43 -46 123 -6 14 -12 41 -15 60 -2 19 -5
40 -8 47 -6 16 13 29 75 51 69 24 75 25 88 9z m388 -53 c35 -25 64 -47 64 -50
0 -9 -19 -4 -32 9 -46 44 -88 68 -110 61 -20 -6 -21 -5 -9 10 7 9 16 16 18 16
3 0 34 -20 69 -46z m-1471 -25 c-11 -5 -134 -43 -273 -83 -228 -67 -256 -73
-279 -61 l-26 13 39 12 c65 19 528 128 544 128 10 1 8 -3 -5 -9z m2143 -23
c12 -3 12 -4 -3 -3 -11 1 -20 9 -21 17 0 8 1 10 3 3 2 -6 12 -14 21 -17z
m-2822 -3 c-10 -10 -19 5 -10 18 6 11 8 11 12 0 2 -7 1 -15 -2 -18z m2921 7
c3 -10 2 -11 -4 -4 -4 6 -15 14 -23 17 -11 5 -9 6 4 4 11 -1 21 -9 23 -17z
m-2947 6 c0 -11 -19 -15 -25 -6 -3 5 1 10 9 10 9 0 16 -2 16 -4z m2475 -6 c3
-6 -1 -7 -9 -4 -18 7 -21 14 -7 14 6 0 13 -4 16 -10z m-929 -100 c54 -39 101
-76 103 -82 5 -14 -13 -3 -66 40 -24 19 -54 35 -67 36 -16 1 -21 5 -15 12 5 7
-8 22 -37 43 -52 36 -67 37 -29 1 14 -13 25 -28 25 -33 0 -5 -15 6 -34 26
l-33 36 -47 -17 c-31 -11 -45 -22 -43 -32 1 -8 -4 -20 -13 -27 -10 -8 -11 -12
-3 -13 14 0 6 -30 -8 -30 -12 0 -11 23 3 69 11 35 16 39 67 53 65 18 51 23
197 -82z m1394 60 c-33 -26 -49 -26 -19 0 13 10 29 19 34 19 6 1 -1 -8 -15
-19z m-347 -5 c-3 -9 -8 -14 -10 -11 -3 3 -2 9 2 15 9 16 15 13 8 -4z m687 5
c13 -8 13 -10 -2 -10 -9 0 -20 5 -23 10 -8 13 5 13 25 0z m-2000 -7 c0 -5 -5
-15 -10 -23 -8 -12 -10 -11 -10 8 0 12 5 22 10 22 6 0 10 -3 10 -7z m1819 -69
c-12 -13 -24 -22 -27 -20 -2 2 6 14 17 25 12 12 22 31 22 44 2 22 2 22 6 -1 3
-16 -3 -32 -18 -48z m-1182 24 c-3 -8 -6 -5 -6 6 -1 11 2 17 5 13 3 -3 4 -12
1 -19z m1481 15 c-10 -2 -26 -2 -35 0 -10 3 -2 5 17 5 19 0 27 -2 18 -5z
m-2590 -32 c3 -16 -4 -30 -19 -42 -19 -14 -24 -32 -36 -134 -7 -64 -17 -123
-21 -131 -5 -10 -18 10 -40 61 -18 41 -32 80 -32 88 0 7 -18 25 -40 40 l-40
26 -78 -21 c-42 -11 -88 -21 -102 -22 -36 -1 -47 -21 -54 -97 -8 -82 -23 -107
-54 -90 -12 6 -29 25 -38 42 -8 17 -30 37 -47 44 -31 13 -85 61 -76 68 2 2
114 36 249 75 135 40 279 83 320 96 89 29 104 28 108 -3z m89 7 c-3 -8 -6 -5
-6 6 -1 11 2 17 5 13 3 -3 4 -12 1 -19z m1743 -67 c23 -23 27 -30 13 -22 -29
15 -103 92 -103 106 0 5 13 -4 28 -20 15 -17 43 -46 62 -64z m-1763 47 c-3 -8
-6 -5 -6 6 -1 11 2 17 5 13 3 -3 4 -12 1 -19z m1063 -19 c0 -17 10 -45 22 -62
12 -17 17 -28 11 -24 -6 4 -14 2 -16 -3 -3 -6 -4 -5 -3 2 2 7 -4 21 -12 31
-16 18 -24 87 -10 87 4 0 8 -14 8 -31z m-1872 10 c-2 -6 -7 -10 -11 -10 -4 1
-15 1 -24 2 -15 0 -15 2 2 9 28 12 37 12 33 -1z m994 -19 c16 -22 24 -27 30
-18 5 9 8 5 8 -9 0 -13 3 -23 8 -23 4 0 12 -10 18 -23 34 -67 46 -87 55 -87 5
0 9 -5 9 -11 0 -6 17 -34 37 -63 l37 -51 -57 60 c-32 33 -68 81 -82 106 -26
51 -95 129 -112 129 -7 0 -24 -5 -40 -11 -15 -6 -43 -13 -61 -15 -18 -2 -38
-7 -45 -11 -6 -4 -18 -8 -26 -8 -14 0 -37 -45 -22 -45 10 0 11 -32 1 -45 -7
-10 -12 -74 -14 -171 -1 -46 -2 -49 -14 -32 -8 10 -11 29 -8 42 3 12 8 74 11
137 7 117 14 139 46 139 11 0 19 4 19 10 0 5 6 7 13 5 6 -3 35 1 62 9 81 22
102 20 127 -14z m242 -16 c3 -8 2 -12 -4 -9 -6 3 -10 10 -10 16 0 14 7 11 14
-7z m580 -63 c9 -35 14 -66 12 -69 -5 -4 -21 51 -32 109 -11 55 2 29 20 -40z
m311 40 l20 -25 -26 20 c-15 10 -25 23 -22 27 3 5 6 7 7 5 0 -2 10 -14 21 -27z
m-888 -43 c-3 -8 -6 -5 -6 6 -1 11 2 17 5 13 3 -3 4 -12 1 -19z m976 -25 c16
-13 25 -23 20 -23 -4 0 -26 16 -48 36 -40 37 -24 29 28 -13z m467 31 l35 -14
-35 6 c-40 7 -76 24 -50 23 8 0 31 -7 50 -15z m-2145 -20 c24 -10 36 -49 41
-134 3 -41 23 -142 45 -223 22 -82 38 -154 35 -160 -2 -7 -5 -5 -5 4 -1 22
-59 216 -78 262 -9 20 -14 40 -11 43 3 3 -5 33 -19 67 -14 34 -25 68 -26 75 0
6 -4 12 -9 12 -5 0 -7 4 -4 9 4 5 3 16 0 25 -4 11 -11 13 -30 6 -14 -6 -28 -9
-32 -8 -4 1 -31 -6 -59 -16 -53 -17 -58 -24 -56 -73 1 -7 -3 -13 -8 -13 -5 0
-9 -14 -9 -32 0 -17 -2 -29 -5 -26 -10 10 8 140 19 143 6 1 43 12 81 23 75 22
104 26 130 16z m765 2 c0 -3 -4 -8 -10 -11 -5 -3 -10 -1 -10 4 0 6 5 11 10 11
6 0 10 -2 10 -4z m1483 -3 c-7 -2 -21 -2 -30 0 -10 3 -4 5 12 5 17 0 24 -2 18
-5z m-1514 -39 c1 11 4 17 7 13 3 -3 3 -20 -1 -38 l-7 -33 -14 40 c-18 50 -17
68 1 29 10 -22 14 -25 14 -11z m641 -8 c0 -26 -6 -18 -14 19 -5 22 -4 26 4 15
5 -8 10 -24 10 -34z m17 -33 c-9 -34 -8 -46 7 -70 l17 -28 -20 24 c-24 26 -26
45 -10 90 16 45 20 34 6 -16z m387 -5 c21 -15 35 -28 29 -28 -10 0 -93 59 -93
66 0 6 14 -2 64 -38z m151 12 c-3 -5 -12 -10 -18 -10 -7 0 -6 4 3 10 19 12 23
12 15 0z m-2385 -40 c36 0 80 -26 80 -47 0 -6 6 -16 14 -22 7 -6 11 -22 9 -35
-4 -18 9 -45 43 -97 l49 -73 6 40 6 39 2 -47 c0 -27 -3 -48 -8 -48 -4 0 -28
28 -51 62 -24 34 -46 56 -48 49 -2 -7 -15 11 -28 40 -25 52 -88 132 -98 122
-2 -3 -22 -7 -43 -10 -21 -3 -42 -11 -46 -19 -4 -8 -17 -14 -28 -14 -11 0 -17
-4 -14 -10 9 -14 -8 -13 -23 2 -16 16 -15 -3 2 -27 7 -11 16 -44 20 -73 4 -29
9 -59 12 -67 4 -8 1 -15 -4 -15 -10 0 -23 29 -27 60 -3 18 -11 43 -30 86 -7
17 -10 35 -7 41 10 14 50 34 81 39 14 3 35 6 46 9 11 2 24 4 28 4 4 1 3 10 -3
20 -15 30 -11 39 7 14 11 -17 25 -23 53 -23z m1490 -27 c0 -8 -36 16 -55 38
-16 19 -13 18 18 -5 20 -16 37 -30 37 -33z m275 47 c3 -5 1 -10 -4 -10 -6 0
-11 5 -11 10 0 6 2 10 4 10 3 0 8 -4 11 -10z m-924 -17 c13 -16 12 -17 -3 -4
-17 13 -22 21 -14 21 2 0 10 -8 17 -17z m-24 -70 c-2 -16 -4 -5 -4 22 0 28 2
40 4 28 2 -13 2 -35 0 -50z m64 20 c13 -16 12 -17 -3 -4 -17 13 -22 21 -14 21
2 0 10 -8 17 -17z m679 -30 c0 -8 -38 17 -51 33 -9 11 -2 9 19 -6 17 -13 32
-25 32 -27z m-331 -33 c0 -9 -4 -8 -9 5 -5 11 -9 27 -9 35 0 9 4 8 9 -5 5 -11
9 -27 9 -35z m-314 20 c10 -11 16 -20 13 -20 -3 0 -13 9 -23 20 -10 11 -16 20
-13 20 3 0 13 -9 23 -20z m985 10 c0 -5 -2 -10 -4 -10 -3 0 -8 5 -11 10 -3 6
-1 10 4 10 6 0 11 -4 11 -10z m-1683 -92 c-2 -13 -4 -3 -4 22 0 25 2 35 4 23
2 -13 2 -33 0 -45z m1404 45 c13 -16 12 -17 -3 -4 -17 13 -22 21 -14 21 2 0
10 -8 17 -17z m-781 -18 c14 4 20 3 16 -3 -3 -5 -19 -12 -34 -14 -25 -3 -28
-1 -24 15 3 13 7 15 12 7 5 -8 16 -9 30 -5z m-1030 -20 c14 -19 14 -19 -2 -6
-10 7 -18 18 -18 24 0 6 1 8 3 6 1 -2 9 -13 17 -24z m1361 8 c13 -16 12 -17
-3 -4 -17 13 -22 21 -14 21 2 0 10 -8 17 -17z m-325 -73 c6 0 23 -14 40 -31
29 -30 29 -31 5 -27 -13 2 -39 22 -60 48 -19 25 -26 37 -15 28 11 -10 25 -18
30 -18z m-482 -25 c5 -21 4 -24 -2 -11 -8 18 -9 18 -15 2 -4 -10 -7 -32 -7
-48 0 -17 -3 -29 -6 -25 -3 3 -3 33 1 67 7 63 19 69 29 15z m876 1 c0 -7 -20
-22 -45 -34 -62 -30 -71 -27 -12 4 44 23 47 26 36 47 -11 20 -11 21 4 8 10 -7
17 -19 17 -25z m34 -2 c3 -8 2 -12 -4 -9 -6 3 -10 10 -10 16 0 14 7 11 14 -7z
m-647 -41 c-3 -10 -5 -2 -5 17 0 19 2 27 5 18 2 -10 2 -26 0 -35z m338 27
c-28 -12 -37 -12 -30 0 3 6 16 10 28 9 21 0 21 -1 2 -9z m-564 -101 c9 -34 13
-57 9 -52 -10 10 -41 128 -32 118 4 -3 14 -33 23 -66z m-322 -69 c0 -8 -7 5
-15 30 -7 25 -13 52 -13 60 0 8 7 -5 15 -30 7 -25 13 -52 13 -60z m12 83 c13
-16 12 -17 -3 -4 -17 13 -22 21 -14 21 2 0 10 -8 17 -17z m236 -40 c-3 -10 -5
-2 -5 17 0 19 2 27 5 18 2 -10 2 -26 0 -35z m-429 -4 c-3 -8 -7 -3 -11 10 -4
17 -3 21 5 13 5 -5 8 -16 6 -23z m252 -29 c17 -22 28 -40 23 -40 -8 0 -68 80
-59 80 2 0 19 -18 36 -40z m437 -12 c-3 -8 -6 -5 -6 6 -1 11 2 17 5 13 3 -3 4
-12 1 -19z m-272 -36 c-6 -35 -11 -41 -44 -51 -49 -14 -44 -16 -71 22 l-23 32
29 -26 c25 -22 34 -25 61 -18 27 8 32 15 38 50 4 22 9 38 12 35 3 -2 2 -22 -2
-44z m232 -8 c-3 -3 -12 -4 -19 -1 -8 3 -5 6 6 6 11 1 17 -2 13 -5z m-425 -94
c2 -18 -2 -25 -17 -28 -15 -2 -17 -1 -6 6 9 7 11 20 7 43 -5 23 -4 29 3 19 5
-8 11 -26 13 -40z"/>
<path d="M6266 2914 c-9 -23 -2 -28 13 -10 7 8 8 17 3 20 -6 3 -13 -1 -16 -10z"/>
<path d="M3750 2290 c0 -5 5 -10 11 -10 5 0 7 5 4 10 -3 6 -8 10 -11 10 -2 0
-4 -4 -4 -10z"/>
<path d="M4332 4094 c-31 -13 -33 -16 -27 -51 13 -73 25 -110 47 -143 27 -39
53 -53 45 -24 -3 11 -8 62 -12 115 -4 52 -10 100 -13 106 -5 8 -17 7 -40 -3z"/>
<path d="M5685 3912 c-37 -87 -49 -130 -50 -167 0 -43 3 -50 21 -53 30 -4 80
47 94 96 11 42 4 242 -9 242 -3 0 -28 -53 -56 -118z"/>
<path d="M6245 2240 c-324 -98 -925 -278 -1335 -400 -1158 -345 -1531 -458
-1537 -463 -8 -8 90 -147 171 -244 452 -540 1156 -779 1845 -627 362 81 680
259 941 530 334 347 513 778 523 1258 1 73 -2 120 -8 122 -5 1 -275 -78 -600
-176z m531 -27 c-19 -238 -89 -495 -190 -688 l-31 -60 -3 379 c-1 209 1 383 5
387 8 7 198 67 217 68 5 1 6 -37 2 -86z m-306 -447 l0 -444 -57 -73 c-72 -94
-178 -212 -215 -239 l-28 -21 2 567 3 567 145 43 c80 23 146 43 148 43 1 1 2
-199 2 -443z m-380 -263 l0 -588 -108 -71 c-96 -65 -182 -114 -197 -114 -3 0
-4 287 -3 637 l3 638 135 42 c74 23 143 42 153 42 16 1 17 -33 17 -586z m-380
-168 l0 -646 -44 -19 c-57 -24 -232 -80 -251 -80 -13 0 -15 81 -15 650 l0 649
103 31 c56 17 120 37 142 45 22 7 46 14 53 14 9 1 12 -134 12 -644z m-380
-120 l0 -645 -22 -5 c-62 -14 -160 -25 -220 -25 l-68 0 0 618 0 617 133 41
c72 23 142 42 155 43 l22 1 0 -645z m-390 -70 l0 -605 -72 1 c-40 0 -107 6
-148 12 l-75 12 0 550 0 550 140 42 c77 23 143 42 148 42 4 1 7 -271 7 -604z
m-385 -554 c-7 -6 -194 51 -257 79 l-48 21 0 424 c0 305 3 426 11 431 7 4 75
26 153 49 l141 42 3 -520 c1 -286 0 -523 -3 -526z m-375 534 c0 -217 -3 -395
-7 -395 -14 0 -172 94 -236 140 l-67 50 2 257 3 257 140 42 c77 24 146 43 153
43 9 1 12 -84 12 -394z m-380 69 c0 -112 -4 -204 -9 -204 -23 0 -274 284 -283
320 -3 12 269 101 285 93 4 -2 7 -96 7 -209z"/>
<path d="M6422 999 l-74 -79 29 -24 28 -25 35 41 c19 23 53 53 76 67 l41 27
-31 36 -31 36 -73 -79z"/>
<path d="M3396 1001 l-27 -28 29 -12 c35 -15 119 -96 128 -124 6 -18 7 -18 30
4 31 29 30 44 -2 91 -22 31 -107 98 -126 98 -2 0 -17 -13 -32 -29z"/>
<path d="M6548 941 c-46 -29 -98 -93 -98 -120 0 -8 10 -25 21 -38 l22 -22 27
42 c25 40 109 107 134 107 5 0 -3 14 -19 30 -16 17 -32 30 -35 30 -3 0 -27
-13 -52 -29z"/>
<path d="M3197 823 l-118 -105 49 -23 c66 -31 116 -77 145 -134 l24 -49 97
125 c54 69 99 130 102 137 13 33 -115 156 -160 156 -12 -1 -70 -45 -139 -107z"/>
<path d="M6634 841 c-46 -32 -90 -82 -99 -110 -4 -15 19 -51 90 -143 53 -68
99 -124 103 -125 4 -1 21 21 37 50 32 55 108 119 158 133 l30 9 -121 108 c-67
59 -130 107 -140 107 -10 0 -37 -13 -58 -29z"/>
<path d="M2923 587 c-122 -104 -145 -140 -141 -223 3 -49 10 -69 32 -99 59
-77 165 -94 248 -40 42 28 188 219 188 247 0 73 -132 198 -209 198 -11 0 -64
-37 -118 -83z m108 -136 c53 -53 34 -137 -37 -167 -68 -29 -142 30 -131 104
14 85 110 121 168 63z"/>
<path d="M6942 600 c-75 -31 -142 -100 -162 -169 -8 -28 -2 -39 71 -136 44
-58 96 -116 117 -129 71 -47 165 -42 226 12 28 26 56 92 56 137 0 72 -30 116
-141 209 -102 85 -121 94 -167 76z m187 -206 c58 -49 46 -140 -22 -169 -43
-18 -79 -9 -113 26 -42 44 -40 101 4 140 42 38 89 39 131 3z"/>
</g>
</svg>
